HIERARCHY
ROOT __0
{
	OFFSET 0.0 0.0 0.0
	CHANNELS 0
	JOINT spine
	{
		OFFSET 0.000162 -0.056932 1.012679
		CHANNELS 6 Xposition Yposition Zposition Xrotation Yrotation Zrotation
		JOINT spine.001
		{
			OFFSET 0.000320 0.008121 0.058438
			CHANNELS 6 Xposition Yposition Zposition Xrotation Yrotation Zrotation
			JOINT spine.002
			{
				OFFSET -0.001292 0.032221 0.118110
				CHANNELS 6 Xposition Yposition Zposition Xrotation Yrotation Zrotation
				JOINT spine.002_end
				{
					OFFSET -0.001419 0.000034 0.121209
					CHANNELS 3 Xrotation Yrotation Zrotation
					End Site
					{
						OFFSET -0.001419 0.000034 0.121209
					}
				}
			}
		}
		JOINT pelvis.L
		{
			OFFSET -0.000000 -0.000000 -0.000000
			CHANNELS 6 Xposition Yposition Zposition Xrotation Yrotation Zrotation
			JOINT pelvis.L_end
			{
				OFFSET -0.072247 0.002503 -0.038786
				CHANNELS 3 Xrotation Yrotation Zrotation
				End Site
				{
					OFFSET -0.072247 0.002503 -0.038786
				}
			}
		}
		JOINT pelvis.R
		{
			OFFSET -0.000324 -0.000000 -0.000000
			CHANNELS 6 Xposition Yposition Zposition Xrotation Yrotation Zrotation
			JOINT pelvis.R_end
			{
				OFFSET 0.072247 0.002503 -0.038786
				CHANNELS 3 Xrotation Yrotation Zrotation
				End Site
				{
					OFFSET 0.072247 0.002503 -0.038786
				}
			}
		}
		JOINT thigh.L
		{
			OFFSET -0.127459 0.002541 -0.038809
			CHANNELS 6 Xposition Yposition Zposition Xrotation Yrotation Zrotation
			JOINT shin.L
			{
				OFFSET 0.014330 -0.016530 -0.429637
				CHANNELS 6 Xposition Yposition Zposition Xrotation Yrotation Zrotation
				JOINT foot.L
				{
					OFFSET 0.003313 0.024476 -0.456592
					CHANNELS 6 Xposition Yposition Zposition Xrotation Yrotation Zrotation
					JOINT toe.L
					{
						OFFSET -0.002644 0.085599 -0.066570
						CHANNELS 6 Xposition Yposition Zposition Xrotation Yrotation Zrotation
						JOINT toe.L_end
						{
							OFFSET 0.000002 0.066666 -0.008452
							CHANNELS 3 Xrotation Yrotation Zrotation
							End Site
							{
								OFFSET 0.000002 0.066666 -0.008452
							}
						}
					}
					JOINT heel.02.L
					{
						OFFSET 0.049654 -0.016617 -0.087640
						CHANNELS 6 Xposition Yposition Zposition Xrotation Yrotation Zrotation
						JOINT heel.02.L_end
						{
							OFFSET -0.079799 -0.000000 -0.005673
							CHANNELS 3 Xrotation Yrotation Zrotation
							End Site
							{
								OFFSET -0.079799 -0.000000 -0.005673
							}
						}
					}
				}
			}
		}
		JOINT thigh.R
		{
			OFFSET 0.127135 0.002541 -0.038809
			CHANNELS 6 Xposition Yposition Zposition Xrotation Yrotation Zrotation
			JOINT shin.R
			{
				OFFSET -0.014330 -0.016530 -0.429637
				CHANNELS 6 Xposition Yposition Zposition Xrotation Yrotation Zrotation
				JOINT foot.R
				{
					OFFSET -0.003313 0.024476 -0.456592
					CHANNELS 6 Xposition Yposition Zposition Xrotation Yrotation Zrotation
					JOINT toe.R
					{
						OFFSET 0.002644 0.085599 -0.066570
						CHANNELS 6 Xposition Yposition Zposition Xrotation Yrotation Zrotation
						JOINT toe.R_end
						{
							OFFSET -0.000001 0.066666 -0.008452
							CHANNELS 3 Xrotation Yrotation Zrotation
							End Site
							{
								OFFSET -0.000001 0.066666 -0.008452
							}
						}
					}
					JOINT heel.02.R
					{
						OFFSET -0.049654 -0.016617 -0.087641
						CHANNELS 6 Xposition Yposition Zposition Xrotation Yrotation Zrotation
						JOINT heel.02.R_end
						{
							OFFSET 0.079897 -0.000000 -0.004051
							CHANNELS 3 Xrotation Yrotation Zrotation
							End Site
							{
								OFFSET 0.079897 -0.000000 -0.004051
							}
						}
					}
				}
			}
		}
	}
	JOINT spine.003
	{
		OFFSET -0.002228 -0.016557 1.310435
		CHANNELS 6 Xposition Yposition Zposition Xrotation Yrotation Zrotation
		JOINT spine.004
		{
			OFFSET -0.003009 0.000086 0.121993
			CHANNELS 6 Xposition Yposition Zposition Xrotation Yrotation Zrotation
			JOINT spine.005
			{
				OFFSET -0.002254 0.000160 0.129929
				CHANNELS 3 Xrotation Yrotation Zrotation
				JOINT spine.006
				{
					OFFSET -0.000135 -0.000162 0.071697
					CHANNELS 3 Xrotation Yrotation Zrotation
					JOINT spine.006_end
					{
						OFFSET -0.000571 -0.002162 0.198302
						CHANNELS 3 Xrotation Yrotation Zrotation
						End Site
						{
							OFFSET -0.000571 -0.002162 0.198302
						}
					}
				}
			}
		}
		JOINT shoulder.L
		{
			OFFSET -0.003009 0.000086 0.121993
			CHANNELS 6 Xposition Yposition Zposition Xrotation Yrotation Zrotation
			JOINT upper_arm.L
			{
				OFFSET -0.150343 0.010516 0.017190
				CHANNELS 6 Xposition Yposition Zposition Xrotation Yrotation Zrotation
				JOINT forearm.L
				{
					OFFSET -0.168473 -0.042919 -0.099665
					CHANNELS 6 Xposition Yposition Zposition Xrotation Yrotation Zrotation
					JOINT hand.L
					{
						OFFSET -0.195861 -0.007323 -0.130223
						CHANNELS 3 Xrotation Yrotation Zrotation
						JOINT hand.L_end
						{
							OFFSET -0.061460 0.002182 -0.033437
							CHANNELS 3 Xrotation Yrotation Zrotation
							End Site
							{
								OFFSET -0.061460 0.002182 -0.033437
							}
						}
					}
				}
			}
		}
		JOINT shoulder.R
		{
			OFFSET -0.003009 0.000086 0.121993
			CHANNELS 6 Xposition Yposition Zposition Xrotation Yrotation Zrotation
			JOINT upper_arm.R
			{
				OFFSET 0.160819 0.010516 0.017190
				CHANNELS 6 Xposition Yposition Zposition Xrotation Yrotation Zrotation
				JOINT forearm.R
				{
					OFFSET 0.168473 -0.042919 -0.099665
					CHANNELS 3 Xrotation Yrotation Zrotation
					JOINT hand.R
					{
						OFFSET 0.201860 0.019004 -0.120869
						CHANNELS 3 Xrotation Yrotation Zrotation
						JOINT hand.R_end
						{
							OFFSET 0.060711 0.010731 -0.033206
							CHANNELS 3 Xrotation Yrotation Zrotation
							End Site
							{
								OFFSET 0.060711 0.010731 -0.033206
							}
						}
					}
				}
			}
		}
		JOINT breast.L
		{
			OFFSET -0.074125 -0.086365 0.053266
			CHANNELS 6 Xposition Yposition Zposition Xrotation Yrotation Zrotation
			JOINT breast.L_end
			{
				OFFSET -0.000000 0.139200 0.000000
				CHANNELS 3 Xrotation Yrotation Zrotation
				End Site
				{
					OFFSET -0.000000 0.139200 0.000000
				}
			}
		}
		JOINT breast.R
		{
			OFFSET 0.078582 -0.086365 0.053266
			CHANNELS 6 Xposition Yposition Zposition Xrotation Yrotation Zrotation
			JOINT breast.R_end
			{
				OFFSET 0.000000 0.139200 0.000000
				CHANNELS 3 Xrotation Yrotation Zrotation
				End Site
				{
					OFFSET 0.000000 0.139200 0.000000
				}
			}
		}
	}
}
MOTION
Frames: 4
Frame Time: 0.016667
0.000162 -0.056933 1.012679 0.000021 0.000025 -0.000018 0.000320 0.008121 0.058438 0.000017 -0.000016 0.000047 -0.001292 0.032221 0.118110 -0.000014 0.000010 0.000011 -0.000000 0.000000 -0.000000 -0.000000 0.000000 0.000000 -0.000005 -0.000031 0.000027 0.000000 -0.000002 0.000000 -0.000324 0.000000 0.000000 0.000008 -0.000047 0.000004 0.000000 -0.000002 -0.000000 -0.127459 0.002541 -0.038809 25.353280 -0.015211 7.155870 0.014331 -0.016530 -0.429637 -65.946904 6.873180 2.834130 0.003315 0.024476 -0.456592 5.008356 -3.126822 3.042218 -0.002642 0.085598 -0.066572 -0.005856 0.000035 0.000170 0.000000 -0.000000 0.000000 0.049654 -0.016617 -0.087642 -0.000080 4.066225 0.000194 -0.000001 -0.000000 0.000001 0.127135 0.002541 -0.038809 1.989386 1.838847 -5.985043 -0.014330 -0.016530 -0.429637 -12.878729 -0.549822 -1.101291 -0.003314 0.024476 -0.456592 6.775236 -4.164339 2.309955 0.002643 0.085598 -0.066572 0.128516 0.000031 -0.000195 -0.000001 -0.000000 0.000000 -0.049654 -0.016617 -0.087642 -0.000097 -2.902795 -0.000219 0.000000 -0.000000 -0.000001 -0.002228 -0.016557 1.310435 -8.901576 0.396713 -5.122444 -0.003009 0.000086 0.121993 -1.244816 0.883626 -1.078138 -1.244821 0.883626 -1.078099 -1.244812 0.883640 -1.078090 0.000000 -0.000000 0.000001 -0.003009 0.000086 0.121993 -6.698670 -5.311500 -3.801587 -0.150343 0.010516 0.017189 -0.068116 -36.399331 -22.732253 -0.168473 -0.042919 -0.099665 32.403059 -15.152746 -57.221085 82.204093 49.904012 61.398579 -0.000002 -0.000004 -0.000003 -0.003009 0.000086 0.121993 -11.942547 -11.351588 12.998349 0.160819 0.010516 0.017190 -7.108901 38.760876 20.824618 34.629981 25.391966 72.277444 23.131402 35.094745 -30.386654 -0.000000 -0.000001 0.000003 -0.074125 -0.086365 0.053266 0.000025 0.000000 0.000002 -0.000000 0.000000 -0.000000 0.078582 -0.086365 0.053266 0.000033 -0.000003 -0.000044 -0.000001 -0.000000 -0.000000 
0.000162 -0.056933 1.012679 0.000021 0.000025 -0.000018 0.000320 0.008121 0.058438 0.000017 -0.000016 0.000047 -0.001292 0.032221 0.118110 -0.000014 0.000010 0.000011 -0.000000 0.000000 -0.000000 -0.000000 0.000000 0.000000 -0.000005 -0.000031 0.000027 0.000000 -0.000002 0.000000 -0.000324 0.000000 0.000000 0.000008 -0.000047 0.000004 0.000000 -0.000002 -0.000000 -0.127459 0.002541 -0.038809 23.714173 0.150535 6.908313 0.014331 -0.016530 -0.429637 -66.795972 6.735992 2.213753 0.003315 0.024476 -0.456592 4.846328 -5.116406 2.849238 -0.002642 0.085598 -0.066572 0.136492 0.000037 0.000174 -0.000003 0.000000 0.000001 0.049654 -0.016617 -0.087642 -0.000081 4.066225 0.000195 0.000000 0.000001 0.000000 0.127135 0.002541 -0.038809 2.558376 2.130542 -6.805411 -0.014330 -0.016530 -0.429637 -12.692507 -0.972518 0.083491 -0.003314 0.024476 -0.456592 5.688296 -4.056069 2.079076 0.002643 0.085598 -0.066572 0.128519 0.000033 -0.000195 -0.000000 -0.000000 -0.000000 -0.049654 -0.016617 -0.087642 -0.000094 -2.902794 -0.000218 -0.000000 -0.000000 -0.000001 -0.002228 -0.016557 1.310436 -9.012202 0.821943 -5.109700 -0.003009 0.000086 0.121993 -1.235203 0.893029 -1.107769 -1.235196 0.893016 -1.107729 -1.235212 0.893048 -1.107712 0.000001 0.000001 -0.000001 -0.003009 0.000086 0.121993 -6.716819 -5.165482 -3.829226 -0.150343 0.010516 0.017189 -0.068113 -36.399335 -22.732265 -0.168473 -0.042919 -0.099665 32.403063 -15.152741 -57.221091 82.206142 49.905173 61.184848 -0.000002 0.000003 0.000000 -0.003009 0.000086 0.121993 -11.960977 -11.203718 12.984014 0.160819 0.010516 0.017190 -7.130613 38.786773 20.886828 34.629974 25.391954 72.277444 23.245492 35.175105 -30.358251 0.000002 0.000003 0.000001 -0.074125 -0.086365 0.053266 0.000026 0.000000 0.000002 -0.000000 0.000000 0.000000 0.078582 -0.086365 0.053266 0.000034 -0.000003 -0.000044 -0.000000 -0.000001 -0.000001 
0.000162 -0.056933 1.012679 0.000021 0.000025 -0.000018 0.000320 0.008121 0.058438 0.000017 -0.000016 0.000047 -0.001292 0.032221 0.118110 -0.000014 0.000010 0.000011 -0.000000 0.000000 -0.000000 -0.000000 0.000000 0.000000 -0.000005 -0.000031 0.000027 0.000000 -0.000002 0.000000 -0.000324 0.000000 0.000000 0.000008 -0.000047 0.000004 0.000000 -0.000002 -0.000000 -0.127459 0.002541 -0.038809 22.073565 0.259125 6.678727 0.014331 -0.016530 -0.429637 -67.610287 6.603447 1.365108 0.003315 0.024476 -0.456592 4.670584 -7.137734 2.660897 -0.002642 0.085598 -0.066572 0.297974 0.000028 0.000162 0.000003 0.000001 -0.000000 0.049654 -0.016617 -0.087642 -0.000084 4.066225 0.000195 0.000001 0.000001 -0.000001 0.127135 0.002541 -0.038809 3.134263 2.411968 -7.724895 -0.014330 -0.016530 -0.429637 -12.427670 -1.446564 1.346972 -0.003314 0.024476 -0.456592 4.561619 -3.916608 1.819187 0.002643 0.085598 -0.066572 0.128515 0.000031 -0.000196 -0.000001 -0.000000 -0.000000 -0.049654 -0.016617 -0.087642 -0.000096 -2.902794 -0.000220 0.000000 -0.000000 -0.000000 -0.002228 -0.016557 1.310435 -9.087714 1.182903 -5.118869 -0.003009 0.000086 0.121992 -1.215725 0.900022 -1.135687 -1.215737 0.900019 -1.135649 -1.215728 0.900031 -1.135632 0.000002 -0.000000 0.000000 -0.003009 0.000086 0.121992 -6.732534 -5.026099 -3.864718 -0.150343 0.010516 0.017190 -0.068108 -36.399331 -22.732261 -0.168473 -0.042919 -0.099665 32.403066 -15.152749 -57.221088 82.206900 49.904545 60.982722 -0.000001 -0.000002 -0.000004 -0.003009 0.000086 0.121992 -11.977958 -11.061637 12.961116 0.160819 0.010516 0.017190 -7.144943 38.803695 20.927677 34.629981 25.391966 72.277444 23.366492 35.260490 -30.328714 -0.000001 -0.000001 0.000000 -0.074125 -0.086365 0.053266 0.000026 0.000001 0.000002 -0.000000 -0.000000 -0.000000 0.078582 -0.086365 0.053266 0.000034 -0.000003 -0.000044 0.000001 -0.000000 -0.000001 
0.000162 -0.056933 1.012679 0.000021 0.000025 -0.000018 0.000320 0.008121 0.058438 0.000017 -0.000016 0.000047 -0.001292 0.032221 0.118110 -0.000014 0.000010 0.000011 -0.000000 0.000000 -0.000000 -0.000000 0.000000 0.000000 -0.000005 -0.000031 0.000027 0.000000 -0.000002 0.000000 -0.000324 0.000000 0.000000 0.000008 -0.000047 0.000004 0.000000 -0.000002 -0.000000 -0.127459 0.002541 -0.038809 20.576975 0.247244 6.522776 0.014331 -0.016530 -0.429637 -68.404611 6.479064 0.317175 0.003315 0.024476 -0.456592 4.475975 -9.057165 2.472919 -0.002642 0.085598 -0.066572 0.519452 0.000028 0.000164 -0.000006 0.000000 0.000000 0.049654 -0.016617 -0.087642 -0.000083 4.066224 0.000196 -0.000003 0.000000 0.000000 0.127135 0.002541 -0.038809 4.276816 2.525209 -8.722054 -0.014330 -0.016530 -0.429637 -12.969991 -1.957227 2.568257 -0.003314 0.024476 -0.456592 3.797860 -3.750129 1.549916 0.002643 0.085598 -0.066572 0.128498 0.000032 -0.000196 0.000000 -0.000000 -0.000000 -0.049654 -0.016617 -0.087642 -0.000100 -2.902793 -0.000219 -0.000000 -0.000000 -0.000001 -0.002228 -0.016557 1.310435 -9.098036 1.461858 -5.160726 -0.003009 0.000086 0.121993 -1.186084 0.903234 -1.162091 -1.186093 0.903235 -1.162052 -1.186072 0.903246 -1.162038 0.000001 -0.000000 -0.000001 -0.003009 0.000086 0.121993 -6.740665 -4.901523 -3.912337 -0.150343 0.010516 0.017189 -0.068111 -36.399331 -22.732263 -0.168473 -0.042919 -0.099665 32.403063 -15.152744 -57.221085 82.205787 49.901314 60.797713 -0.000000 -0.000003 0.000002 -0.003009 0.000086 0.121993 -11.988934 -10.933241 12.924610 0.160819 0.010516 0.017190 -7.148685 38.807981 20.938227 34.629981 25.391962 72.277444 23.496650 35.352537 -30.297630 -0.000000 -0.000004 -0.000001 -0.074125 -0.086364 0.053266 0.000023 0.000000 0.000003 -0.000000 0.000000 0.000000 0.078582 -0.086364 0.053266 0.000032 -0.000003 -0.000043 -0.000000 -0.000000 -0.000001 
